<svg id="visual" viewBox="0 0 900 600" width="900" height="600" xmlns="http://www.w3.org/2000/svg" xmlns:xlink="http://www.w3.org/1999/xlink" version="1.1"><path d="M762 600L763 585.7C764 571.3 766 542.7 769.2 514.2C772.3 485.7 776.7 457.3 779.5 428.8C782.3 400.3 783.7 371.7 779.5 343C775.3 314.3 765.7 285.7 746.8 257C728 228.3 700 199.7 670.5 171.2C641 142.7 610 114.3 604.8 85.8C599.7 57.3 620.3 28.7 630.7 14.3L641 0L900 0L900 14.3C900 28.7 900 57.3 900 85.8C900 114.3 900 142.7 900 171.2C900 199.7 900 228.3 900 257C900 285.7 900 314.3 900 343C900 371.7 900 400.3 900 428.8C900 457.3 900 485.7 900 514.2C900 542.7 900 571.3 900 585.7L900 600Z" fill="#7AC86F" stroke-linecap="round" stroke-linejoin="miter"></path></svg>