<svg id="visual" viewBox="0 0 900 600" width="900" height="600" xmlns="http://www.w3.org/2000/svg" xmlns:xlink="http://www.w3.org/1999/xlink" version="1.1"><path d="M649 600L662.5 585.7C676 571.3 703 542.7 725.8 514.2C748.7 485.7 767.3 457.3 772 428.8C776.7 400.3 767.3 371.7 748.5 343C729.7 314.3 701.3 285.7 677.8 257C654.3 228.3 635.7 199.7 619.8 171.2C604 142.7 591 114.3 589.3 85.8C587.7 57.3 597.3 28.7 602.2 14.3L607 0L900 0L900 14.3C900 28.7 900 57.3 900 85.8C900 114.3 900 142.7 900 171.2C900 199.7 900 228.3 900 257C900 285.7 900 314.3 900 343C900 371.7 900 400.3 900 428.8C900 457.3 900 485.7 900 514.2C900 542.7 900 571.3 900 585.7L900 600Z" fill="#7AC86F" stroke-linecap="round" stroke-linejoin="miter"></path></svg>